<svg xmlns="http://www.w3.org/2000/svg" viewBox="0 0 300 43" enable-background="new 0 0 300 43"><path fill="#5B5641" d="M11.6.1c3.8-.1 9.4.1 13 .2 3.9.1 5.8 3.8 5.7 6.1-.2 4.1 0 4.8 0 7.5 0 2.4.1 2.8-1.9 5.7-.5.7-.5 1-.5 1.7 0 1 .1 1.2.8 2 1.7 2.1 1.8 2.4 2.1 4.8.2 1.8-.3 6.6-.3 9.6.1 3.1-1.5 4.9-4.7 5.1-3.1.2-10.7-.1-14.9.2-2 .1-3.6-.1-6.5-.2-3.4-.1-4.3-1.8-4.2-5.4.2-3.7-.1-15.5-.2-17.7-.1-2.3.2-8.6.4-13.1.2-4.6 1.3-6.4 4.6-6.3 2.8 0 4.8-.1 6.6-.2zm2.7 31.6c.6 0 1.1-.1 1.5-.1.7 0 1.1-.7 1.1-2.2 0-2 .1-2.4-1.8-2.9-1.4-.4-1.4-.2-1.4 3 0 1.6 0 2.2.6 2.2zm1.1-15.3c1.8-.6 1.6-.9 1.6-3.1 0-1.5-.4-1.9-1.1-1.9-.6 0-.7-.1-1-.1-1.1 0-1 .8-1 2.6 0 2.6 0 3 1.5 2.5zM39.7.3c1.4-.3 3.1-.1 4.8 0 2.5.2 2.5 1.3 2.6 3.4.2 2.3.1 9.9.4 13.6.3 3.7.4 21.1.3 23.1-.1 1.9-1.2 2.3-3.1 2.5-2.8.3-3.9-.2-5.3-.1-1.1.1-3 .2-3.9.1-2.5-.2-2.8-2.4-2.9-5.5-.1-2.9-.2-13.9-.1-17.5.1-3.7.1-11.9.1-15.6-.1-3.2.7-3.7 3.5-4 1.3-.1 2.5.2 3.6 0zM58.3.3c3.1-.2 4.1 1.4 6.5 9.6.4 1.4.6 1.6 1.1 1.4.4-.2.3-.5.3-1.2 0-.6-.4-3.9-.4-7.6 0-.9 1.6-2.4 3.2-2.4 2.1 0 6.2.2 7.2.2 3.2-.1 3.6 2.8 3.5 5.4-.1 1.1-.1 4.5-.1 8 0 6.5.3 11.4.3 15.7 0 12.2-.1 13.1-3.9 13.4-.6.1-2.8-.2-4.8-.1-1.7.1-2.7-.2-3.3-1-2.4-3.7-2.2-5.7-3.5-8.8-.4-1.2-.4-1.4-.8-1.1-.6.3-.6.6-.4 1.7.3 2.8.5 6.2.4 7.2-.1.9-1.5 2.1-2.5 2.2-1.4.3-5.5-.1-8.1.1-2.5.2-3.3-2.7-3.4-4.7-.1-1.9-.4-5.4-.2-7.9.2-2.6.2-11.9.1-15.1-.1-3.1.1-8.3.2-11 .1-2.6 2.2-4.1 3.9-4h4.7zM96 0c2.8 0 6.5.3 7.6.3 4 0 6.6 2.3 6.6 10.2 0 3.1.4 4.5.4 5.7 0 1.1-1.1 1.8-2.2 2-4.2.6-7.9 2-9.3 2-.8 0-1.7-.6-1.7-1.7 0-.6.1-1.1 0-2-.2-1.2-.2-1.4-1.1-1.4-1.1 0-.9 1.1-1 2.8-.1 1.1.1 6.7.1 8.2 0 1.5 0 2 1.1 2 .8 0 .8-.3 1-2 .1-1.1-.1-1.7-.1-2.6 0-1.4.8-2 2.2-2 2.5.1 7.6-.3 9.3-.2 1.8.1 2.1 1.1 2.1 2.3 0 1.2-.3 2.6-.2 3.6.1 1.8.3 6.2 0 11.1-.2 3.3-.4 4.3-3.3 4.5-1.7.1-4.8-.1-6.7.1-1.4.1-2.5-.1-2.5-1.2 0-.6-.6-.6-3.6.3-2 .6-3.2.9-4.2.9h-3.1c-3.9-.2-5.2-3.1-5.2-5.7 0-5.7-.3-14.5-.3-17-.2-2.6.1-11.7.1-14.2 0-2.3 2.4-5.7 5.2-5.7 3.4 0 7.1-.3 8.8-.3zM126.5 0c3.8 0 7.3.3 9.3.3 3.1 0 5.6 3.1 5.6 6.5 0 6.5.6 13.3.6 15 0 4.3-.3 4.5-.3 14.2 0 3.1-1.4 6.5-4.5 6.8-3.4.3-7.6-.2-10.4.1-1.7.2-7.6-.1-9-.1-3.2 0-5.8-2.8-5.8-5.7 0-16.7-.1-17.8-.1-19.8 0-2.8.4-6.8.4-9.4 0-4.5 2.4-7.7 4.9-7.7 3.7.1 7-.2 9.3-.2zm.6 28.3c1.1 0 1.2-.9 1.2-1.7-.1-3.1.2-7.7.1-8.9-.1-1.2.1-1.9-1.6-1.9-1.2 0-1.1.5-1.3 2.6-.2 3.1.2 6.2.1 8.2 0 1.2.1 1.7 1.5 1.7z"/><path fill="#E8C11C" d="M155.3.1c3.8-.1 9.4.1 12.9.2 3.9.1 5.8 3.8 5.7 6.1-.2 4.1 0 4.8 0 7.5 0 2.4.1 2.8-1.9 5.7-.5.7-.5 1-.5 1.7 0 1 .1 1.2.8 2 1.7 2.1 1.8 2.4 2.1 4.8.2 1.8-.3 6.6-.3 9.6.1 3.1-1.5 4.9-4.7 5.1-3.1.2-10.7-.1-14.9.2-2 .1-3.6-.1-6.5-.2-3.4-.1-4.3-1.8-4.2-5.4.1-3.7-.2-15.5-.3-17.7-.1-2.3.2-8.6.4-13.1s1.2-6.3 4.6-6.2c3-.1 5-.2 6.8-.3zm2.7 31.6c.6 0 1.1-.1 1.5-.1.7 0 1.1-.7 1.1-2.2 0-2 .1-2.4-1.8-2.9-1.4-.4-1.4-.2-1.4 3 0 1.6 0 2.2.6 2.2zm1.1-15.3c1.8-.6 1.6-.9 1.6-3.1 0-1.5-.4-1.9-1.1-1.9-.6 0-.7-.1-1-.1-1.1 0-1 .8-1 2.6 0 2.6 0 3 1.5 2.5zM190.5.1l9 .2c2.2 0 3.5.9 3.5 2.6 0 1.1.2 2.2.4 3.7.3 2.6.3 5.7.8 10.8 1.1 9.9 1.2 14.6 1.7 18.4.3 2.3.6 2.8.6 5.1 0 2-1.6 2.2-3.4 2-1.7-.1-5.3-.1-8.4-.1-1.7.1-2.8-.6-2.8-1.4 0-1.4 0-3.4-.3-5.7-.1-1.1-.3-1.3-1.1-1.3s-1 .7-1.1 2.2c-.2 1.5 0 2.8 0 4.3 0 1.1-1.7 2-3.1 2-1.1-.2-7 0-8.7 0-1.4 0-2.5-.6-2.5-2 0-1.1.1-1.3.3-2.8.4-3.8.9-10.2 1.7-18.1.8-8.2.9-10.8 1.1-13.9.1-1.4.3-2 .3-3.1 0-1.7 1.4-2.6 3.9-2.6 2-.1 6.5-.3 8.1-.3zm-1.4 21.1c-.1.9.3 1.2 1.1 1.2 1.1 0 1.4-.3 1.2-1.4-.4-3.2-.4-5.7-1.2-5.7s-.7 2.6-1.1 5.9zM216.4.3c3.1-.2 4.1 1.4 6.5 9.6.4 1.4.6 1.6 1.1 1.4.4-.2.3-.5.3-1.2 0-.6-.4-3.9-.4-7.6 0-.9 1.6-2.4 3.2-2.4 2.1 0 6.2.2 7.2.2 3.2-.1 3.6 2.8 3.5 5.4-.1 1.1-.1 4.5-.1 8 0 6.5.3 11.4.3 15.7 0 12.2-.1 13.1-3.9 13.4-.6.1-2.8-.2-4.8-.1-1.7.1-2.7-.2-3.3-1-2.4-3.7-2.2-5.7-3.5-8.8-.4-1.2-.4-1.4-.8-1.1-.6.3-.6.6-.4 1.7.3 2.8.5 6.2.4 7.2-.1.9-1.5 2.1-2.5 2.2-1.4.3-5.5-.1-8.1.1-2.5.2-3.3-2.7-3.4-4.7-.1-1.9-.4-5.4-.2-7.9.2-2.6.2-11.9.1-15.1-.1-3.1.1-8.3.2-11 .1-2.6 2.2-4.1 3.9-4h4.7zM254 0c2.8 0 6.5.3 7.6.3 4 0 6.6 2.3 6.6 10.2 0 3.1.4 4.5.4 5.7 0 1.1-1.1 1.8-2.2 2-4.2.6-7.9 2-9.3 2-.8 0-1.7-.6-1.7-1.7 0-.6.1-1.1 0-2-.2-1.2-.2-1.4-1.1-1.4-1.1 0-.9 1.1-1 2.8-.1 1.1.1 6.7.1 8.2 0 1.5 0 2 1.1 2 .8 0 .8-.3 1-2 .1-1.1-.1-1.7-.1-2.6 0-1.4.8-2 2.2-2 2.5.1 7.6-.3 9.3-.2 1.8.1 2.1 1.1 2.1 2.3 0 1.2-.3 2.6-.2 3.6.1 1.8.3 6.2 0 11.1-.2 3.3-.4 4.3-3.3 4.5-1.7.1-4.8-.1-6.7.1-1.4.1-2.5-.1-2.5-1.2 0-.6-.6-.6-3.6.3-2 .6-3.2.9-4.2.9h-3.1c-3.9-.2-5.2-3.1-5.2-5.7 0-5.7-.3-14.5-.3-17l.3-14.2c0-2.3 2.4-5.7 5.2-5.7 3.2 0 6.9-.3 8.6-.3zM284.6 0c3.8 0 7.3.3 9.3.3 3.1 0 5.6 3.1 5.6 6.5 0 6.5.6 13.3.6 15 0 4.3-.3 4.5-.3 14.2 0 3.1-1.4 6.5-4.5 6.8-3.4.3-7.6-.2-10.4.1-1.7.2-7.6-.1-9-.1-3.2 0-5.8-2.8-5.8-5.7 0-16.7-.1-17.8-.1-19.8 0-2.8.4-6.8.4-9.4 0-4.5 2.4-7.7 4.9-7.7 3.7.1 7-.2 9.3-.2zm.5 28.3c1.1 0 1.2-.9 1.2-1.7-.1-3.1.2-7.7.1-8.9-.1-1.2.1-1.9-1.6-1.9-1.2 0-1.1.5-1.3 2.6-.2 3.1.2 6.2.1 8.2 0 1.2.1 1.7 1.5 1.7z"/></svg>